<svg xmlns="http://www.w3.org/2000/svg" version="1.1" xmlns:xlink="http://www.w3.org/1999/xlink" xmlns:svgjs="http://svgjs.dev/svgjs" width="1500" height="215" viewBox="0 0 1500 215"><g transform="matrix(1,0,0,1,-0.9090909090909918,-0.49054248762135444)"><svg viewBox="0 0 396 57" data-background-color="#ffffff" preserveAspectRatio="xMidYMid meet" height="215" width="1500" xmlns="http://www.w3.org/2000/svg" xmlns:xlink="http://www.w3.org/1999/xlink"><g id="tight-bounds" transform="matrix(1,0,0,1,0.2400000000000091,0.13005079904380068)"><svg viewBox="0 0 395.52 56.73989840191239" height="56.73989840191239" width="395.52"><g><svg viewBox="0 0 475.36289098579624 68.1938767662152" height="56.73989840191239" width="395.52"><g transform="matrix(1,0,0,1,0,9.424768786068817)"><svg viewBox="0 0 395.52 49.34433919407756" height="49.34433919407756" width="395.52"><g id="textblocktransform"><svg viewBox="0 0 395.52 49.34433919407756" height="49.34433919407756" width="395.52" id="textblock"><g><svg viewBox="0 0 395.52 49.34433919407756" height="49.34433919407756" width="395.52"><g transform="matrix(1,0,0,1,0,0)"><svg width="395.52" viewBox="1.61 -35.4 290.18 36.21" height="49.34433919407756" data-palette-color="#61777f"><path d="M28.3-9.91L28.3-9.91Q28.3-6.88 27.08-4.94 25.85-3 23.91-1.92 21.97-0.83 19.78-0.42 17.58 0 15.6 0L15.6 0 1.61 0 1.61-2.15 4.25-2.34Q4.79-2.39 5.04-2.73 5.3-3.08 5.3-3.44L5.3-3.44 5.3-30.1Q5.3-30.47 5.04-30.82 4.79-31.18 4.25-31.2L4.25-31.2 1.61-31.4 1.61-33.54 14.99-33.54Q20.97-33.54 23.61-31.4 26.25-29.25 26.25-25.49L26.25-25.49Q26.25-23 25.06-21.44 23.88-19.87 22.2-19.03 20.53-18.19 19.04-17.8L19.04-17.8Q21.29-17.8 23.41-17.05 25.54-16.31 26.92-14.59 28.3-12.87 28.3-9.91ZM20.85-25.15L20.85-25.15Q20.85-28.08 18.93-29.66 17.02-31.25 13.16-31.25L13.16-31.25Q12.38-31.25 11.47-31.18 10.57-31.1 10.3-31.1L10.3-31.1 10.3-18.46Q10.3-18.46 11-18.43 11.69-18.41 12.11-18.41L12.11-18.41Q16.99-18.41 18.92-20.17 20.85-21.92 20.85-25.15ZM22.85-9.5L22.85-9.5Q22.85-12.92 20.81-14.5 18.77-16.09 14.79-16.09L14.79-16.09Q13.99-16.09 12.99-16.02 11.99-15.94 11.22-15.87 10.45-15.8 10.3-15.8L10.3-15.8 10.3-2.59Q10.3-2.59 10.88-2.55 11.45-2.51 12.19-2.48 12.94-2.44 13.4-2.44L13.4-2.44Q18.65-2.44 20.75-4.2 22.85-5.96 22.85-9.5ZM54.56-7.86L54.56 0 32.91 0 32.91-3.34 35.23-5.22Q39.08-8.35 42.15-11.18 45.21-14.01 46.99-16.74 48.78-19.46 48.78-22.24L48.78-22.24Q48.78-24.34 47.9-25.85 47.02-27.37 45.62-28.17 44.21-28.98 42.65-28.98L42.65-28.98Q41.11-28.98 39.99-28.48 38.86-27.98 38.57-27.78L38.57-27.78 38.57-22.9Q38.33-22.66 37.72-22.39 37.11-22.12 36.33-22.12L36.33-22.12Q35.25-22.12 34.4-22.79 33.54-23.46 33.54-24.85L33.54-24.85Q33.54-26.81 34.96-28.36 36.37-29.91 38.69-30.82 41.01-31.74 43.7-31.74L43.7-31.74Q48.41-31.74 51.21-29.24 54-26.73 54-22.73L54-22.73Q54-19.7 51.9-16.65 49.8-13.6 46.24-10.44 42.67-7.28 38.28-3.88L38.28-3.88 51.36-3.88 52.17-7.86 54.56-7.86ZM85.54-9.91L85.54-9.91Q85.54-6.88 84.32-4.94 83.1-3 81.16-1.92 79.22-0.83 77.02-0.42 74.82 0 72.85 0L72.85 0 58.86 0 58.86-2.15 61.49-2.34Q62.03-2.39 62.29-2.73 62.54-3.08 62.54-3.44L62.54-3.44 62.54-30.1Q62.54-30.47 62.29-30.82 62.03-31.18 61.49-31.2L61.49-31.2 58.86-31.4 58.86-33.54 72.24-33.54Q78.22-33.54 80.85-31.4 83.49-29.25 83.49-25.49L83.49-25.49Q83.49-23 82.31-21.44 81.12-19.87 79.45-19.03 77.78-18.19 76.29-17.8L76.29-17.8Q78.54-17.8 80.66-17.05 82.78-16.31 84.16-14.59 85.54-12.87 85.54-9.91ZM78.1-25.15L78.1-25.15Q78.1-28.08 76.18-29.66 74.26-31.25 70.41-31.25L70.41-31.25Q69.62-31.25 68.72-31.18 67.82-31.1 67.55-31.1L67.55-31.1 67.55-18.46Q67.55-18.46 68.24-18.43 68.94-18.41 69.36-18.41L69.36-18.41Q74.24-18.41 76.17-20.17 78.1-21.92 78.1-25.15ZM80.1-9.5L80.1-9.5Q80.1-12.92 78.06-14.5 76.02-16.09 72.04-16.09L72.04-16.09Q71.24-16.09 70.23-16.02 69.23-15.94 68.46-15.87 67.7-15.8 67.55-15.8L67.55-15.8 67.55-2.59Q67.55-2.59 68.12-2.55 68.7-2.51 69.44-2.48 70.19-2.44 70.65-2.44L70.65-2.44Q75.9-2.44 78-4.2 80.1-5.96 80.1-9.5ZM142.45-2.1L142.45 0.15Q142.13 0.17 141.2 0.49 140.27 0.81 139.15 0.81L139.15 0.81Q136.59 0.81 135.09-0.05 133.58-0.9 132.77-2.31 131.95-3.71 131.47-5.4 131-7.08 130.51-8.75 130.02-10.42 129.16-11.83 128.31-13.23 126.77-14.09 125.23-14.94 122.6-14.94L122.6-14.94Q121.82-14.94 121.12-14.89 120.42-14.84 120.35-14.84L120.35-14.84 120.35-3.44Q120.35-3.08 120.61-2.73 120.86-2.39 121.4-2.34L121.4-2.34 124.04-2.15 124.04 0 111.61 0 111.61-2.15 114.2-2.34Q114.74-2.39 115.02-2.73 115.3-3.08 115.3-3.44L115.3-3.44 115.3-30.1Q115.3-30.47 115.02-30.82 114.74-31.18 114.2-31.2L114.2-31.2 111.61-31.4 111.61-33.54 124.65-33.54Q130.34-33.54 133.62-31.58 136.9-29.61 136.9-24.66L136.9-24.66Q136.9-22.05 135.73-20.37 134.56-18.7 132.69-17.75 130.82-16.8 128.7-16.31L128.7-16.31Q131.02-15.75 132.33-14.71 133.63-13.67 134.27-12.35 134.9-11.04 135.22-9.62 135.54-8.2 135.85-6.86 136.17-5.52 136.82-4.44 137.47-3.37 138.78-2.73 140.1-2.1 142.45-2.1L142.45-2.1ZM131.46-24.44L131.46-24.44Q131.46-27.64 129.42-29.37 127.38-31.1 122.65-31.1L122.65-31.1 120.35-31.1 120.35-17.41Q120.47-17.41 121.36-17.38 122.26-17.36 122.84-17.36L122.84-17.36Q127.02-17.36 129.24-18.9 131.46-20.43 131.46-24.44ZM165.25-5.54L165.25-2.49Q163.15-1.2 160.72-0.29 158.29 0.61 155.75 0.61L155.75 0.61Q152.72 0.61 150.07-0.74 147.42-2.1 145.79-4.86 144.15-7.62 144.15-11.79L144.15-11.79Q144.15-15.7 145.67-18.6 147.18-21.51 149.84-23.11 152.5-24.71 155.9-24.71L155.9-24.71Q160.56-24.71 162.9-21.81 165.25-18.92 165.25-14.45L165.25-14.45Q165.25-14.21 165.25-13.81 165.25-13.4 165.2-13.06L165.2-13.06 148.99-13.06Q148.99-11.16 149.39-9.27 149.79-7.37 150.74-5.83 151.7-4.3 153.31-3.37 154.92-2.44 157.34-2.44L157.34-2.44Q159.48-2.44 161.52-3.43 163.56-4.42 165.25-5.54L165.25-5.54ZM149.26-15.31L160.24-15.31 160.24-16.41Q160.24-18.87 159.06-20.56 157.87-22.24 155.38-22.24L155.38-22.24Q152.92-22.24 151.18-20.39 149.45-18.53 149.26-15.31L149.26-15.31ZM188.56-4.71L188.56-4.71 188.56-1.86Q186.87-0.95 184.76-0.17 182.65 0.61 180.11 0.61L180.11 0.61Q176.62 0.61 174.05-1.03 171.47-2.66 170.07-5.48 168.66-8.3 168.66-11.89L168.66-11.89Q168.66-16.09 170.33-18.95 172.01-21.8 174.75-23.25 177.5-24.71 180.7-24.71L180.7-24.71Q183.99-24.71 186.23-23.43 188.46-22.14 188.46-19.7L188.46-19.7Q188.46-18.24 187.55-17.49 186.63-16.75 185.51-16.75L185.51-16.75Q184.68-16.75 184.07-17.03 183.46-17.31 182.99-17.6L182.99-17.6 182.99-21.95Q181.85-22.61 180.89-22.61L180.89-22.61Q178.67-22.61 177.07-21.3 175.47-20 174.62-17.72 173.76-15.45 173.76-12.55L173.76-12.55Q173.76-9.79 174.69-7.51 175.62-5.22 177.46-3.88 179.31-2.54 182.04-2.54L182.04-2.54Q183.77-2.54 185.36-3.1 186.95-3.66 188.56-4.71ZM209.28-23.95L209.28-18.99 207.33-18.99Q206.87-19.56 206.22-19.96 205.57-20.36 204.65-20.36L204.65-20.36Q203.45-20.36 202.19-19.53 200.93-18.7 199.64-17.26L199.64-17.26 199.64-3.2Q199.64-2.15 200.69-2.1L200.69-2.1 203.99-1.95 203.99 0 191.49 0 191.49-1.9 193.95-2.1Q194.39-2.15 194.7-2.44 195-2.73 195-3.2L195-3.2 195-20.56 191.39-20.56 191.39-22.19 197.59-24.1 199.64-24.1 199.64-19.65Q200.37-20.46 201.47-21.66 202.57-22.85 203.82-23.78 205.06-24.71 206.23-24.71L206.23-24.71Q207.01-24.71 207.92-24.46 208.82-24.22 209.28-23.95L209.28-23.95ZM237.19-1.95L237.19 0 229.25 0 229.25-2.86Q228.4-2.2 227.08-1.39 225.76-0.59 224.25 0.01 222.73 0.61 221.24 0.61L221.24 0.61Q218.02 0.61 216.18-1.33 214.34-3.27 214.34-7.5L214.34-7.5 214.34-21.04 210.84-21.04 210.84-22.75 217-24.71 219-24.71 219-8.45Q219-5.79 220.08-4.3 221.17-2.81 223.83-2.81L223.83-2.81Q225.37-2.81 226.86-3.33 228.35-3.86 229.25-4.3L229.25-4.3 229.25-21.04 225.74-21.04 225.74-22.75 231.84-24.71 233.89-24.71 233.89-3.2Q233.89-2.73 234.22-2.44 234.55-2.15 234.99-2.1L234.99-2.1 237.19-1.95ZM249.12-32.35L249.12-32.35Q249.12-31.08 248.24-30.16 247.37-29.25 246.1-29.25L246.1-29.25Q244.83-29.25 243.91-30.16 243-31.08 243-32.35L243-32.35Q243-33.64 243.91-34.52 244.83-35.4 246.1-35.4L246.1-35.4Q247.37-35.4 248.24-34.52 249.12-33.64 249.12-32.35ZM251.69-1.95L251.69 0 239.94 0 239.94-1.95 242.38-2.1Q243.43-2.17 243.43-3.2L243.43-3.2 243.43-21.04 239.99-21.04 239.99-22.8 246.1-24.71 248.07-24.71 248.07-3.2Q248.07-2.73 248.38-2.44 248.68-2.15 249.12-2.1L249.12-2.1 251.69-1.95ZM270.04-3.05L270.04-3.05 270.04-1.05Q270.04-1.05 269.1-0.63 268.16-0.22 266.64 0.2 265.11 0.61 263.31 0.61L263.31 0.61Q260.5 0.61 259.22-0.72 257.93-2.05 257.93-5L257.93-5 257.93-21.61 254.74-21.61 254.74-23.24 258.15-24.85 260.4-30.15 262.6-30.15 262.6-24.1 269.65-24.1 269.65-21.61 262.6-21.61 262.6-7.64Q262.6-4.66 263.6-3.43 264.6-2.2 266.6-2.2L266.6-2.2Q268.07-2.2 269.05-2.62 270.04-3.05 270.04-3.05ZM291.79-7.54L291.79 0 272.09 0 272.09-2.66 285.32-21.75 276.63-21.75Q276.27-21.75 275.99-21.4 275.7-21.04 275.63-20.7L275.63-20.7 275.14-16.99 272.58-16.99 272.58-24.1 291.09-24.1 291.09-22.05 277.39-2.39 287.47-2.39Q287.81-2.39 288.18-2.81 288.55-3.22 288.57-3.59L288.57-3.59 289.08-7.54 291.79-7.54Z" opacity="1" transform="matrix(1,0,0,1,0,0)" fill="#61777f" class="wordmark-text-0" data-fill-palette-color="primary" id="text-0"></path></svg></g></svg></g></svg></g></svg></g><g transform="matrix(1,0,0,1,407.169014219581,0)"><svg viewBox="0 0 68.1938767662152 68.1938767662152" height="68.1938767662152" width="68.1938767662152"><g data-palette-color="#c8c8c8"><rect width="18.639659649432154" height="68.1938767662152" fill="#c8c8c8" stroke="transparent" data-fill-palette-color="accent" x="0" fill-opacity="1"></rect><rect width="18.639659649432154" height="68.1938767662152" fill="#c8c8c8" stroke="transparent" data-fill-palette-color="accent" x="22.731292255405066" fill-opacity="0.75"></rect><rect width="18.639659649432154" height="68.1938767662152" fill="#c8c8c8" stroke="transparent" data-fill-palette-color="accent" x="45.46258451081013" fill-opacity="0.5"></rect></g></svg></g></svg></g><defs></defs></svg><rect width="395.52" height="56.73989840191239" fill="none" stroke="none" visibility="hidden"></rect></g></svg></g></svg>